<?xml version="1.0" encoding="UTF-8" standalone="no"?>
<!-- Generator: Adobe Illustrator 19.0.0, SVG Export Plug-In . SVG Version: 6.00 Build 0)  -->

<svg
   version="1.1"
   id="Layer_1"
   x="0px"
   y="0px"
   viewBox="0 0 512 406.06799"
   xml:space="preserve"
   sodipodi:docname="folder.svg"
   width="512"
   height="406.06799"
   inkscape:version="1.1 (c68e22c387, 2021-05-23)"
   xmlns:inkscape="http://www.inkscape.org/namespaces/inkscape"
   xmlns:sodipodi="http://sodipodi.sourceforge.net/DTD/sodipodi-0.dtd"
   xmlns="http://www.w3.org/2000/svg"
   xmlns:svg="http://www.w3.org/2000/svg"><defs
   id="defs53" /><sodipodi:namedview
   id="namedview51"
   pagecolor="#ffffff"
   bordercolor="#666666"
   borderopacity="1.0"
   inkscape:pageshadow="2"
   inkscape:pageopacity="0.0"
   inkscape:pagecheckerboard="0"
   showgrid="false"
   inkscape:zoom="1.015625"
   inkscape:cx="255.50769"
   inkscape:cy="149.16923"
   inkscape:window-width="1366"
   inkscape:window-height="705"
   inkscape:window-x="-8"
   inkscape:window-y="-8"
   inkscape:window-maximized="1"
   inkscape:current-layer="Layer_1" />
<path
   id="SVGCleanerId_0"
   style="fill:#ffc36e"
   d="M 183.295,70.62 H 55.05 c -6.687,0 -12.801,-3.778 -15.791,-9.76 L 26.483,35.31 39.259,9.76 C 42.249,3.778 48.362,0 55.05,0 h 128.246 c 6.687,0 12.801,3.778 15.791,9.76 l 12.775,25.55 -12.776,25.55 c -2.99,5.982 -9.103,9.76 -15.791,9.76 z" />
<g
   id="g4"
   transform="translate(0,-52.966)">
	<path
   id="SVGCleanerId_0_1_"
   style="fill:#ffc36e"
   d="M 183.295,123.586 H 55.05 c -6.687,0 -12.801,-3.778 -15.791,-9.76 L 26.483,88.276 39.259,62.726 c 2.99,-5.982 9.103,-9.76 15.791,-9.76 h 128.246 c 6.687,0 12.801,3.778 15.791,9.76 l 12.775,25.55 -12.776,25.55 c -2.99,5.982 -9.103,9.76 -15.791,9.76 z" />
</g>
<path
   style="fill:#eff2fa"
   d="M 485.517,17.655 H 26.483 c -4.875,0 -8.828,3.953 -8.828,8.828 v 44.138 h 476.69 V 26.482 c 0,-4.875 -3.953,-8.827 -8.828,-8.827 z"
   id="path6" />
<rect
   x="17.655001"
   y="52.965"
   style="fill:#e1e6f2"
   width="476.69"
   height="17.655001"
   id="rect8" />
<path
   style="fill:#ffd782"
   d="M 494.345,35.31 H 217.318 c -3.343,0 -6.4,1.889 -7.895,4.879 L 199.087,60.86 c -2.99,5.982 -9.105,9.76 -15.791,9.76 H 55.05 c -6.687,0 -12.801,-3.778 -15.791,-9.76 L 28.922,40.189 C 27.427,37.199 24.37,35.31 21.027,35.31 H 17.655 C 7.904,35.31 0,43.214 0,52.965 v 335.448 c 0,9.751 7.904,17.655 17.655,17.655 h 476.69 c 9.751,0 17.655,-7.904 17.655,-17.655 V 52.965 C 512,43.214 504.096,35.31 494.345,35.31 Z"
   id="path10" />
<path
   style="fill:#ffc36e"
   d="M 485.517,388.413 H 26.483 c -4.875,0 -8.828,-3.953 -8.828,-8.828 v 0 c 0,-4.875 3.953,-8.828 8.828,-8.828 h 459.034 c 4.875,0 8.828,3.953 8.828,8.828 v 0 c 0,4.876 -3.953,8.828 -8.828,8.828 z"
   id="path12" />
<path
   style="fill:#eff2fa"
   d="m 326.621,167.724 h 132.414 c 4.875,0 8.828,-3.953 8.828,-8.828 V 88.275 c 0,-4.875 -3.953,-8.828 -8.828,-8.828 H 326.621 c -4.875,0 -8.828,3.953 -8.828,8.828 v 70.621 c 0,4.875 3.953,8.828 8.828,8.828 z"
   id="path14" />
<path
   style="fill:#c7cfe2"
   d="m 441.379,114.758 h -97.103 c -4.875,0 -8.828,-3.953 -8.828,-8.828 v 0 c 0,-4.875 3.953,-8.828 8.828,-8.828 h 97.103 c 4.875,0 8.828,3.953 8.828,8.828 v 0 c 0,4.876 -3.953,8.828 -8.828,8.828 z"
   id="path16" />
<path
   style="fill:#d7deed"
   d="m 441.379,150.068 h -97.103 c -4.875,0 -8.828,-3.953 -8.828,-8.828 v 0 c 0,-4.875 3.953,-8.828 8.828,-8.828 h 97.103 c 4.875,0 8.828,3.953 8.828,8.828 v 0 c 0,4.876 -3.953,8.828 -8.828,8.828 z"
   id="path18" />
<g
   id="g20"
   transform="translate(0,-52.966)">
</g>
<g
   id="g22"
   transform="translate(0,-52.966)">
</g>
<g
   id="g24"
   transform="translate(0,-52.966)">
</g>
<g
   id="g26"
   transform="translate(0,-52.966)">
</g>
<g
   id="g28"
   transform="translate(0,-52.966)">
</g>
<g
   id="g30"
   transform="translate(0,-52.966)">
</g>
<g
   id="g32"
   transform="translate(0,-52.966)">
</g>
<g
   id="g34"
   transform="translate(0,-52.966)">
</g>
<g
   id="g36"
   transform="translate(0,-52.966)">
</g>
<g
   id="g38"
   transform="translate(0,-52.966)">
</g>
<g
   id="g40"
   transform="translate(0,-52.966)">
</g>
<g
   id="g42"
   transform="translate(0,-52.966)">
</g>
<g
   id="g44"
   transform="translate(0,-52.966)">
</g>
<g
   id="g46"
   transform="translate(0,-52.966)">
</g>
<g
   id="g48"
   transform="translate(0,-52.966)">
</g>
</svg>
